<svg xmlns="http://www.w3.org/2000/svg" version="1.1" xmlns:xlink="http://www.w3.org/1999/xlink" xmlns:svgjs="http://svgjs.dev/svgjs" width="2000" height="1500" viewBox="0 0 2000 1500"><rect width="2000" height="1500" fill="#ffffff"></rect><g transform="matrix(0.75,0,0,0.75,249.090909090909,278.98548387096776)"><svg viewBox="0 0 396 248" data-background-color="#ffffff" preserveAspectRatio="xMidYMid meet" height="1252" width="2000" xmlns="http://www.w3.org/2000/svg" xmlns:xlink="http://www.w3.org/1999/xlink"><g id="tight-bounds" transform="matrix(1,0,0,1,0.2400000000000091,0.4000000000000057)"><svg viewBox="0 0 395.52 247.2" height="247.2" width="395.52"><g><svg></svg></g><g><svg viewBox="0 0 395.52 247.2" height="247.2" width="395.52"><g transform="matrix(1,0,0,1,75.54432,75.6901545187314)"><svg viewBox="0 0 244.43135999999998 95.81969096253718" height="95.81969096253718" width="244.43135999999998"><g><svg viewBox="0 0 244.43135999999998 95.81969096253718" height="95.81969096253718" width="244.43135999999998"><g><svg viewBox="0 0 244.43135999999998 95.81969096253718" height="95.81969096253718" width="244.43135999999998"><g><svg viewBox="0 0 244.43135999999998 95.81969096253718" height="95.81969096253718" width="244.43135999999998"><g id="textblocktransform"><svg viewBox="0 0 244.43135999999998 95.81969096253718" height="95.81969096253718" width="244.43135999999998" id="textblock"><g><svg viewBox="0 0 244.43135999999998 64.67058491512914" height="64.67058491512914" width="244.43135999999998"><g transform="matrix(1,0,0,1,0,0)"><svg width="244.43135999999998" viewBox="0.05 -35.01 132.31 35.01" height="64.67058491512914" data-palette-color="#2a2c35"><path d="M22-35.01L30-35.01 18.51 0 11.5 0 0.05-35.01 8.01-35.01 14.99-11.65 22-35.01ZM40.35-35.01L40.35 0 33.35 0 33.35-35.01 40.35-35.01ZM44.79-24.51L44.79-24.51Q44.79-26.68 45.62-28.59 46.45-30.49 47.88-31.92 49.31-33.35 51.22-34.18 53.12-35.01 55.29-35.01L55.29-35.01 71.36-35.01 71.36-28 55.29-28Q54.56-28 53.93-27.73 53.29-27.47 52.81-26.99 52.34-26.51 52.07-25.88 51.8-25.24 51.8-24.51L51.8-24.51Q51.8-23.78 52.07-23.13 52.34-22.49 52.81-22.01 53.29-21.53 53.93-21.26 54.56-21 55.29-21L55.29-21 62.3-21Q64.47-21 66.39-20.18 68.31-19.36 69.73-17.93 71.16-16.5 71.98-14.59 72.8-12.67 72.8-10.5L72.8-10.5Q72.8-8.33 71.98-6.42 71.16-4.52 69.73-3.09 68.31-1.66 66.39-0.83 64.47 0 62.3 0L62.3 0 46.75 0 46.75-7.01 62.3-7.01Q63.03-7.01 63.67-7.28 64.3-7.54 64.78-8.02 65.25-8.5 65.52-9.13 65.79-9.77 65.79-10.5L65.79-10.5Q65.79-11.23 65.52-11.87 65.25-12.5 64.78-12.98 64.3-13.45 63.67-13.72 63.03-13.99 62.3-13.99L62.3-13.99 55.29-13.99Q53.12-13.99 51.22-14.82 49.31-15.65 47.88-17.08 46.45-18.51 45.62-20.42 44.79-22.34 44.79-24.51ZM91.59-28L91.59 0 84.61 0 84.61-28 74.09-28 74.09-35.01 102.09-35.01 102.09-28 91.59-28ZM111.34-13.99L125.36-13.99 125.36-21Q125.36-22.44 124.81-23.72 124.26-25 123.31-25.95 122.35-26.9 121.07-27.45 119.79-28 118.35-28L118.35-28Q116.91-28 115.63-27.45 114.35-26.9 113.39-25.95 112.44-25 111.89-23.72 111.34-22.44 111.34-21L111.34-21 111.34-13.99ZM132.36-21L132.36 0 125.36 0 125.36-7.01 111.34-7.01 111.34 0 104.36 0 104.36-21Q104.36-23.9 105.46-26.45 106.56-29 108.45-30.91 110.34-32.81 112.89-33.91 115.44-35.01 118.35-35.01L118.35-35.01Q121.25-35.01 123.81-33.91 126.36-32.81 128.26-30.91 130.17-29 131.26-26.45 132.36-23.9 132.36-21L132.36-21Z" opacity="1" transform="matrix(1,0,0,1,0,0)" fill="#2a2c35" class="wordmark-text-0" data-fill-palette-color="primary" id="text-0"></path></svg></g></svg></g><g transform="matrix(1,0,0,1,102.78338688,79.93775791955316)"><svg viewBox="0 0 141.64797312 15.881933042984015" height="15.881933042984015" width="141.64797312"><g transform="matrix(1,0,0,1,0,0)"><svg width="141.64797312" viewBox="0.35 -39.65 450.34999999999997 50.5" height="15.881933042984015" data-palette-color="#2a2c35"><path d="M11.75-35.25Q14.75-35.25 17.05-34.2 19.35-33.15 21.3-31.05L21.3-31.05 18.35-27.65Q16.8-29.05 15.33-29.75 13.85-30.45 12.2-30.45L12.2-30.45Q10.3-30.45 9.2-29.28 8.1-28.1 8.1-26.2L8.1-26.2Q8.1-24.3 9.25-23.1 10.4-21.9 13.75-20.6L13.75-20.6Q18.05-18.85 20.08-16.5 22.1-14.15 22.1-9.85L22.1-9.85Q22.1-6.9 20.75-4.48 19.4-2.05 16.88-0.65 14.35 0.75 11 0.75L11 0.75Q7.55 0.75 5-0.48 2.45-1.7 0.35-3.95L0.35-3.95 3.55-7.45Q5.35-5.85 7-5 8.65-4.15 10.6-4.15L10.6-4.15Q12.9-4.15 14.18-5.58 15.45-7 15.45-9.45L15.45-9.45Q15.45-11.6 14.33-12.98 13.2-14.35 10.15-15.5L10.15-15.5Q5.55-17.35 3.53-19.75 1.5-22.15 1.5-25.75L1.5-25.75Q1.5-28.5 2.83-30.65 4.15-32.8 6.5-34.02 8.85-35.25 11.75-35.25L11.75-35.25ZM44.95-13.85Q44.95-13.4 44.8-11.3L44.8-11.3 31.15-11.3Q31.35-7.2 32.57-5.58 33.8-3.95 36.05-3.95L36.05-3.95Q37.6-3.95 38.85-4.48 40.1-5 41.55-6.15L41.55-6.15 44.1-2.65Q40.6 0.75 35.7 0.75L35.7 0.75Q30.5 0.75 27.72-2.85 24.95-6.45 24.95-13L24.95-13Q24.95-19.55 27.6-23.35 30.25-27.15 35.1-27.15L35.1-27.15Q39.75-27.15 42.35-23.78 44.95-20.4 44.95-13.85L44.95-13.85ZM38.95-15.3L38.95-15.65Q38.95-19.4 38.05-21.13 37.15-22.85 35.15-22.85L35.15-22.85Q33.3-22.85 32.32-21.18 31.35-19.5 31.15-15.3L31.15-15.3 38.95-15.3ZM68.09-13.85Q68.09-13.4 67.95-11.3L67.95-11.3 54.3-11.3Q54.5-7.2 55.72-5.58 56.95-3.95 59.2-3.95L59.2-3.95Q60.75-3.95 62-4.48 63.25-5 64.7-6.15L64.7-6.15 67.25-2.65Q63.75 0.75 58.85 0.75L58.85 0.75Q53.65 0.75 50.87-2.85 48.1-6.45 48.1-13L48.1-13Q48.1-19.55 50.75-23.35 53.4-27.15 58.25-27.15L58.25-27.15Q62.9-27.15 65.5-23.78 68.09-20.4 68.09-13.85L68.09-13.85ZM62.1-15.3L62.1-15.65Q62.1-19.4 61.2-21.13 60.3-22.85 58.3-22.85L58.3-22.85Q56.45-22.85 55.47-21.18 54.5-19.5 54.3-15.3L54.3-15.3 62.1-15.3ZM96.44-18.3Q99.79-17.55 101.72-15.63 103.64-13.7 103.64-9.9L103.64-9.9Q103.64-4.9 100.27-2.45 96.89 0 91.09 0L91.09 0 82.39 0 82.39-34.55 89.94-34.55Q95.89-34.55 99.14-32.3 102.39-30.05 102.39-25.75L102.39-25.75Q102.39-22.85 100.77-20.95 99.14-19.05 96.44-18.3L96.44-18.3ZM90.59-29.85L88.74-29.85 88.74-20.3 90.89-20.3Q95.94-20.3 95.94-25.2L95.94-25.2Q95.94-27.65 94.67-28.75 93.39-29.85 90.59-29.85L90.59-29.85ZM91.14-4.8Q94.04-4.8 95.54-6.03 97.04-7.25 97.04-10.15L97.04-10.15Q97.04-13.05 95.64-14.43 94.24-15.8 91.29-15.8L91.29-15.8 88.74-15.8 88.74-4.8 91.14-4.8ZM126.49-13.85Q126.49-13.4 126.34-11.3L126.34-11.3 112.69-11.3Q112.89-7.2 114.11-5.58 115.34-3.95 117.59-3.95L117.59-3.95Q119.14-3.95 120.39-4.48 121.64-5 123.09-6.15L123.09-6.15 125.64-2.65Q122.14 0.75 117.24 0.75L117.24 0.75Q112.04 0.75 109.26-2.85 106.49-6.45 106.49-13L106.49-13Q106.49-19.55 109.14-23.35 111.79-27.15 116.64-27.15L116.64-27.15Q121.29-27.15 123.89-23.78 126.49-20.4 126.49-13.85L126.49-13.85ZM120.49-15.3L120.49-15.65Q120.49-19.4 119.59-21.13 118.69-22.85 116.69-22.85L116.69-22.85Q114.84-22.85 113.86-21.18 112.89-19.5 112.69-15.3L112.69-15.3 120.49-15.3ZM149.44-26.45L142.44 0.1Q141.14 4.9 138.24 7.65 135.34 10.4 130.49 10.85L130.49 10.85 129.79 6.5Q132.94 5.85 134.51 4.42 136.09 3 136.99 0L136.99 0 134.69 0 127.99-26.45 134.24-26.45 138.64-4.1 143.34-26.45 149.44-26.45ZM161.73-27.15Q166.73-27.15 169.51-23.65 172.28-20.15 172.28-13.25L172.28-13.25Q172.28-6.65 169.48-2.95 166.68 0.75 161.73 0.75L161.73 0.75Q156.78 0.75 153.98-2.88 151.18-6.5 151.18-13.25L151.18-13.25Q151.18-19.95 153.98-23.55 156.78-27.15 161.73-27.15L161.73-27.15ZM161.73-22.5Q159.58-22.5 158.58-20.38 157.58-18.25 157.58-13.25L157.58-13.25Q157.58-8.2 158.58-6.08 159.58-3.95 161.73-3.95L161.73-3.95Q163.88-3.95 164.88-6.08 165.88-8.2 165.88-13.25L165.88-13.25Q165.88-18.3 164.88-20.4 163.88-22.5 161.73-22.5L161.73-22.5ZM189.18-27.15Q192.03-27.15 193.68-25.1 195.33-23.05 195.33-19.6L195.33-19.6 195.33 0 189.18 0 189.18-18.9Q189.18-20.8 188.66-21.63 188.13-22.45 187.13-22.45L187.13-22.45Q185.03-22.45 182.98-18.5L182.98-18.5 182.98 0 176.83 0 176.83-26.45 182.18-26.45 182.63-23Q183.98-25.1 185.51-26.13 187.03-27.15 189.18-27.15L189.18-27.15ZM213.83-37.7L219.98-37.05 219.98 0 214.53 0 214.23-3.05Q211.88 0.75 208.18 0.75L208.18 0.75Q204.08 0.75 201.9-2.93 199.73-6.6 199.73-13.2L199.73-13.2Q199.73-17.4 200.85-20.58 201.98-23.75 203.98-25.45 205.98-27.15 208.58-27.15L208.58-27.15Q211.78-27.15 213.83-24.5L213.83-24.5 213.83-37.7ZM209.93-3.9Q211.08-3.9 212-4.7 212.93-5.5 213.83-7L213.83-7 213.83-19.85Q212.23-22.55 210.18-22.55L210.18-22.55Q206.13-22.55 206.13-13.25L206.13-13.25Q206.13-8.2 207.13-6.05 208.13-3.9 209.93-3.9L209.93-3.9ZM246.67-5L248.82-1.2Q246.37 0.75 243.07 0.75L243.07 0.75Q239.62 0.75 237.82-1.23 236.02-3.2 236.02-6.6L236.02-6.6 236.02-22 232.92-22 232.92-26.45 236.02-26.45 236.02-32.3 242.17-33.05 242.17-26.45 247.17-26.45 246.57-22 242.17-22 242.17-6.6Q242.17-4.2 244.22-4.2L244.22-4.2Q244.87-4.2 245.37-4.38 245.87-4.55 246.67-5L246.67-5ZM263.72-27.15Q266.57-27.15 268.22-25.1 269.87-23.05 269.87-19.6L269.87-19.6 269.87 0 263.72 0 263.72-18.9Q263.72-20.8 263.2-21.63 262.67-22.45 261.67-22.45L261.67-22.45Q259.57-22.45 257.52-18.5L257.52-18.5 257.52 0 251.37 0 251.37-37 257.52-37.65 257.52-23.3Q258.77-25.25 260.25-26.2 261.72-27.15 263.72-27.15L263.72-27.15ZM294.27-13.85Q294.27-13.4 294.12-11.3L294.12-11.3 280.47-11.3Q280.67-7.2 281.89-5.58 283.12-3.95 285.37-3.95L285.37-3.95Q286.92-3.95 288.17-4.48 289.42-5 290.87-6.15L290.87-6.15 293.42-2.65Q289.92 0.75 285.02 0.75L285.02 0.75Q279.82 0.75 277.04-2.85 274.27-6.45 274.27-13L274.27-13Q274.27-19.55 276.92-23.35 279.57-27.15 284.42-27.15L284.42-27.15Q289.07-27.15 291.67-23.78 294.27-20.4 294.27-13.85L294.27-13.85ZM288.27-15.3L288.27-15.65Q288.27-19.4 287.37-21.13 286.47-22.85 284.47-22.85L284.47-22.85Q282.62-22.85 281.64-21.18 280.67-19.5 280.47-15.3L280.47-15.3 288.27-15.3ZM330.26 0L323.86 0 323.86-15.5 314.91-15.5 314.91 0 308.56 0 308.56-34.55 314.91-34.55 314.91-20.6 323.86-20.6 323.86-34.55 330.26-34.55 330.26 0ZM345.46-27.15Q350.46-27.15 353.24-23.65 356.01-20.15 356.01-13.25L356.01-13.25Q356.01-6.65 353.21-2.95 350.41 0.75 345.46 0.75L345.46 0.75Q340.51 0.75 337.71-2.88 334.91-6.5 334.91-13.25L334.91-13.25Q334.91-19.95 337.71-23.55 340.51-27.15 345.46-27.15L345.46-27.15ZM345.46-22.5Q343.31-22.5 342.31-20.38 341.31-18.25 341.31-13.25L341.31-13.25Q341.31-8.2 342.31-6.08 343.31-3.95 345.46-3.95L345.46-3.95Q347.61-3.95 348.61-6.08 349.61-8.2 349.61-13.25L349.61-13.25Q349.61-18.3 348.61-20.4 347.61-22.5 345.46-22.5L345.46-22.5ZM372.21-27.1Q373.36-27.1 374.26-26.75L374.26-26.75 373.26-20.85Q372.26-21.1 371.41-21.1L371.41-21.1Q369.51-21.1 368.41-19.45 367.31-17.8 366.71-14.55L366.71-14.55 366.71 0 360.56 0 360.56-26.45 365.91-26.45 366.36-21.85Q368.21-27.1 372.21-27.1L372.21-27.1ZM377.11-26.45L383.26-26.45 383.26 0 377.11 0 377.11-26.45ZM380.16-39.65Q381.81-39.65 382.83-38.6 383.86-37.55 383.86-35.9L383.86-35.9Q383.86-34.3 382.83-33.25 381.81-32.2 380.16-32.2L380.16-32.2Q378.51-32.2 377.48-33.25 376.46-34.3 376.46-35.9L376.46-35.9Q376.46-37.55 377.48-38.6 378.51-39.65 380.16-39.65L380.16-39.65ZM387.65-26.45L403.9-26.45 403.9-22 393.35-4.85 404.1-4.85 403.55 0 386.75 0 386.75-4.45 397.3-21.6 387.65-21.6 387.65-26.45ZM417.1-27.15Q422.1-27.15 424.88-23.65 427.65-20.15 427.65-13.25L427.65-13.25Q427.65-6.65 424.85-2.95 422.05 0.75 417.1 0.75L417.1 0.75Q412.15 0.75 409.35-2.88 406.55-6.5 406.55-13.25L406.55-13.25Q406.55-19.95 409.35-23.55 412.15-27.15 417.1-27.15L417.1-27.15ZM417.1-22.5Q414.95-22.5 413.95-20.38 412.95-18.25 412.95-13.25L412.95-13.25Q412.95-8.2 413.95-6.08 414.95-3.95 417.1-3.95L417.1-3.95Q419.25-3.95 420.25-6.08 421.25-8.2 421.25-13.25L421.25-13.25Q421.25-18.3 420.25-20.4 419.25-22.5 417.1-22.5L417.1-22.5ZM444.55-27.15Q447.4-27.15 449.05-25.1 450.7-23.05 450.7-19.6L450.7-19.6 450.7 0 444.55 0 444.55-18.9Q444.55-20.8 444.02-21.63 443.5-22.45 442.5-22.45L442.5-22.45Q440.4-22.45 438.35-18.5L438.35-18.5 438.35 0 432.2 0 432.2-26.45 437.55-26.45 438-23Q439.35-25.1 440.87-26.13 442.4-27.15 444.55-27.15L444.55-27.15Z" opacity="1" transform="matrix(1,0,0,1,0,0)" fill="#2a2c35" class="slogan-text-1" data-fill-palette-color="secondary" id="text-1"></path></svg></g></svg></g></svg></g></svg></g></svg></g></svg></g></svg></g><path d="M227.219 69.69L227.219 11.81 3.638 11.81 3.638 235.39 227.219 235.39 227.219 177.51 221.387 177.51 221.387 229.558 9.471 229.558 9.471 17.642 221.387 17.642 221.387 69.69Z" fill="#2a2c35" stroke="transparent" data-fill-palette-color="tertiary"></path></svg></g><defs></defs></svg><rect width="395.52" height="247.2" fill="none" stroke="none" visibility="hidden"></rect></g></svg></g></svg>